<svg xmlns="http://www.w3.org/2000/svg" width="41" height="35" viewBox="0 0 41 35">
  <path fill="#F93B78" d="M28.8222233,19.16083 C28.8222233,20.6057634 27.6507394,21.7864484 26.2189257,21.7864484 L13.8439647,21.7864484 C13.6524364,21.7864484 13.483222,21.8576643 13.3567761,21.9776069 L7.21671281,27.4162541 C6.66816082,27.9016468 5.80907262,27.5099592 5.80907262,26.7734367 L5.80907262,22.4967334 C5.80907262,22.1069201 5.48923892,21.7864484 5.09874428,21.7864484 L2.60329759,21.7864484 C1.17334341,21.7864484 0,20.6057634 0,19.16083 L0,2.62561843 C0,1.18068494 1.17334341,0 2.60329759,0 L26.2189257,0 C27.6507394,0 28.8222233,1.18068494 28.8222233,2.62561843 L28.8222233,19.16083 Z M37.6094683,10.8581785 C39.0431415,10.8581785 40.212766,12.0388634 40.212766,13.4819228 L40.212766,28.0062217 C40.212766,29.4511552 39.0431415,30.6318401 37.6094683,30.6318401 L35.1140217,30.6318401 C34.723527,30.6318401 34.4036933,30.9541859 34.4036933,31.3477475 L34.4036933,34.1439093 C34.4036933,34.8785577 33.5446051,35.2702453 32.9979126,34.7867267 L26.8597088,30.828621 C26.7295439,30.7049302 26.5621891,30.6318401 26.3706608,30.6318401 L18.6184125,30.6318401 C17.1865988,30.6318401 16.0132554,29.4511552 16.0132554,28.0062217 L16.0132554,24.2017925 L27.207435,24.2017925 C29.4183784,24.2017925 31.2258107,22.3782902 31.2258107,20.1499816 L31.2258107,10.8581785 L37.6094683,10.8581785 Z"/>
</svg>
