<svg xmlns="http://www.w3.org/2000/svg" width="30" height="30" viewBox="0 0 30 30">
  <defs>
    <style>
      .cls-1 {
        fill: #f93b78;
        fill-rule: evenodd;
      }
    </style>
  </defs>
  <path id="instagram" class="cls-1" d="M15,2.7c4.005,0,4.48.015,6.061,0.087a8.3,8.3,0,0,1,2.785.516,4.647,4.647,0,0,1,1.725,1.122,4.644,4.644,0,0,1,1.122,1.725,8.3,8.3,0,0,1,.517,2.785C27.282,10.52,27.3,10.995,27.3,15s-0.015,4.48-.087,6.061a8.3,8.3,0,0,1-.517,2.785,4.967,4.967,0,0,1-2.847,2.847,8.3,8.3,0,0,1-2.785.516C19.48,27.282,19.005,27.3,15,27.3s-4.48-.015-6.061-0.087a8.3,8.3,0,0,1-2.785-.516,4.648,4.648,0,0,1-1.725-1.122,4.648,4.648,0,0,1-1.122-1.725,8.3,8.3,0,0,1-.517-2.785C2.718,19.48,2.7,19.005,2.7,15s0.015-4.48.087-6.061a8.3,8.3,0,0,1,.517-2.785A4.647,4.647,0,0,1,4.429,4.429,4.647,4.647,0,0,1,6.153,3.307,8.3,8.3,0,0,1,8.939,2.79C10.52,2.718,10.995,2.7,15,2.7M15,0c-4.074,0-4.584.017-6.184,0.09a11.01,11.01,0,0,0-3.641.7,7.356,7.356,0,0,0-2.657,1.73A7.354,7.354,0,0,0,.787,5.174a11.016,11.016,0,0,0-.7,3.641C0.017,10.416,0,10.926,0,15s0.017,4.584.09,6.184a11.016,11.016,0,0,0,.7,3.641,7.353,7.353,0,0,0,1.73,2.657,7.355,7.355,0,0,0,2.657,1.73,11.009,11.009,0,0,0,3.641.7C10.416,29.983,10.926,30,15,30s4.584-.017,6.184-0.09a11.01,11.01,0,0,0,3.641-.7,7.669,7.669,0,0,0,4.387-4.387,11.015,11.015,0,0,0,.7-3.641C29.983,19.585,30,19.074,30,15s-0.017-4.585-.09-6.185a11.016,11.016,0,0,0-.7-3.641,7.353,7.353,0,0,0-1.73-2.657A7.354,7.354,0,0,0,24.826.787a11.011,11.011,0,0,0-3.641-.7C19.584,0.017,19.074,0,15,0h0Zm0,7.3A7.7,7.7,0,1,0,22.7,15,7.7,7.7,0,0,0,15,7.3ZM15,20a5,5,0,1,1,5-5A5,5,0,0,1,15,20ZM24.807,6.993a1.8,1.8,0,1,1-1.8-1.8A1.8,1.8,0,0,1,24.807,6.993Z"/>
</svg>
