<svg xmlns="http://www.w3.org/2000/svg" xmlns:xlink="http://www.w3.org/1999/xlink" width="30" height="30" viewBox="0 0 30 30">
  <defs>
    <style>
      .cls-1 {
        fill: #f93b78;
        fill-rule: evenodd;
      }
    </style>
    <clipPath id="clip-path">
      <rect x="0.078" y="-0.547" width="30" height="30"/>
    </clipPath>
  </defs>
  <g clip-path="url(#clip-path)">
    <path id="TWITTER" class="cls-1" d="M29.83,6.232h0M20.595,3.344a6.169,6.169,0,0,0-6,7.562A17.48,17.48,0,0,1,1.9,4.471a6.168,6.168,0,0,0,1.906,8.223,6.138,6.138,0,0,1-2.789-.77c0,0.025,0,.052,0,0.077A6.162,6.162,0,0,0,5.958,18.04a6.174,6.174,0,0,1-2.782.105,6.166,6.166,0,0,0,5.752,4.277,12.359,12.359,0,0,1-7.648,2.636,12.622,12.622,0,0,1-1.469-.086,17.433,17.433,0,0,0,9.441,2.766c11.328,0,17.522-9.383,17.522-17.522q0-.4-0.018-0.8A12.51,12.51,0,0,0,29.83,6.232a12.341,12.341,0,0,1-3.537.97A6.177,6.177,0,0,0,29,3.794a12.337,12.337,0,0,1-3.911,1.5,6.148,6.148,0,0,0-4.5-1.945" transform="translate(0.078 -0.547)"/>
  </g>
</svg>
