<svg xmlns="http://www.w3.org/2000/svg" width="30" height="30" viewBox="0 0 30 30">
  <defs>
    <style>
      .cls-1 {
        fill-rule: evenodd;
        fill: #f93b78;
      }
    </style>
  </defs>
  <path id="youtube" class="cls-1" d="M15.007,5H14.993S8.7,5,4.5,5.3A4.3,4.3,0,0,0,1.492,6.567,6.44,6.44,0,0,0,.3,9.53,44.957,44.957,0,0,0,0,14.363v2.265A44.958,44.958,0,0,0,.3,21.46a6.439,6.439,0,0,0,1.192,2.964A5.1,5.1,0,0,0,4.8,25.7C7.2,25.929,15,26,15,26h0s6.3-.009,10.5-0.311a4.3,4.3,0,0,0,3.006-1.265A6.441,6.441,0,0,0,29.7,21.46a45.007,45.007,0,0,0,.3-4.832V14.363a45.006,45.006,0,0,0-.3-4.832,6.442,6.442,0,0,0-1.193-2.964A4.3,4.3,0,0,0,25.5,5.3C21.3,5,15.007,5,15.007,5M11.9,19.373l8.1-4.18L11.9,10.984v8.389Z" transform="translate(0 -0.5)"/>
</svg>
