<?xml version="1.0" encoding="utf-8"?>
<!-- Generator: Adobe Illustrator 23.0.2, SVG Export Plug-In . SVG Version: 6.00 Build 0)  -->
<svg version="1.1" baseProfile="tiny" id="Layer_1" xmlns="http://www.w3.org/2000/svg" xmlns:xlink="http://www.w3.org/1999/xlink"
	 x="0px" y="0px" width="169px" height="57px" viewBox="0 0 169 57" xml:space="preserve">
<path fill="#FFFFFF" stroke="#929497" stroke-width="0.35" stroke-miterlimit="10" d="M58.3,0h98.44h-4.75h10.05
	c3.84,0,6.95,3.2,6.95,7.15v42.7c0,3.95-3.11,7.15-6.95,7.15h-10.05h4.75H58.16h5.5h-30.2l-0.01,0c0,0-0.01,0-0.03,0
	c-9.97,0-18.34-6.96-20.52-16.29l-1.61-0.08C5.1,40.31,0.26,35.22,0.26,29.03V0H63.8"/>
<g>
	<path fill="#5FC323" d="M6.24,5.98V29c0,3.66,2.87,6.61,6.48,6.8c-0.19-9.89,6.82-18.74,16.86-20.51c1.18-0.21,2.37-0.32,3.57-0.32
		c9.93,0,18.38,7.11,20.11,16.89c0.23,1.33,0.32,2.64,0.3,3.94c3.6-0.2,6.47-3.15,6.47-6.8V5.98H6.24z"/>
	<path d="M26.58,35.4c0-3.64,2.95-6.58,6.59-6.58c3.64,0,6.58,2.95,6.58,6.58H26.58z M17.48,35.41c0,8.61,7.01,15.61,15.61,15.61
		c4.18,0,8.11-1.63,11.06-4.6l-3.18-3.16c-2.1,2.12-4.9,3.28-7.88,3.28c-6.14,0-11.12-4.99-11.12-11.12
		c0-6.13,4.98-11.12,11.12-11.12c6.14,0,11.12,4.99,11.12,11.12h4.49c0-8.6-7-15.6-15.6-15.6C24.5,19.8,17.48,26.81,17.48,35.41"/>
</g>
<g>
	<path fill="#004676" d="M69.68,44.92h3.6v8H72.6v-0.66h-6.49v0.7h-0.66v-8.04H69v-2.17l0.87,0.05c-0.01,0.08-0.06,0.13-0.19,0.15
		V44.92z M69,45.67h-2.88v2.53H69V45.67z M66.12,48.92v2.6H69v-2.6H66.12z M72.6,45.67h-2.92v2.53h2.92V45.67z M69.68,51.52h2.92
		v-2.6h-2.92V51.52z"/>
	<path fill="#004676" d="M120.07,48.25l-1.18,0.48v3.31c0,0.85-0.37,0.94-1.63,0.91c-0.02-0.19-0.12-0.51-0.21-0.71
		c0.28,0.01,0.52,0.02,0.72,0.02c0.43,0,0.48,0,0.48-0.22v-3.06c-0.47,0.19-0.89,0.35-1.24,0.48c0,0.09-0.05,0.15-0.12,0.19
		l-0.25-0.86c0.44-0.14,0.99-0.33,1.6-0.56V45.7h-1.5V45h1.5v-2.25l0.83,0.05c-0.01,0.09-0.06,0.13-0.19,0.15V45h1.14v0.69h-1.14
		v2.31l1.09-0.4L120.07,48.25z M123.24,51.96c0.32,0.05,0.65,0.08,1.01,0.08h1.76c-0.09,0.17-0.18,0.47-0.21,0.66h-1.58
		c-1.43,0-2.47-0.31-3.14-1.69c-0.27,0.81-0.63,1.52-1.11,1.99c-0.11-0.12-0.33-0.31-0.49-0.4c0.78-0.75,1.22-2.13,1.4-3.73
		l0.79,0.15c-0.02,0.09-0.08,0.12-0.2,0.13c-0.04,0.34-0.1,0.67-0.17,0.99c0.29,0.87,0.73,1.35,1.29,1.61v-3.33h-2.36v-0.66h5.67
		v0.66h-2.67v1.35h2.21v0.64h-2.21V51.96z M125.31,43.15v3.77h-4.6v-3.77H125.31z M124.66,44.74v-1.01h-3.35v1.01H124.66z
		 M124.66,46.34V45.3h-3.35v1.03H124.66z"/>
	<path fill="#004676" d="M127.95,46.63c-0.38,0.69-0.79,1.31-1.21,1.84c-0.07-0.18-0.24-0.52-0.35-0.69
		c0.95-1.14,1.9-3.05,2.48-4.95l0.79,0.3c-0.04,0.08-0.11,0.11-0.23,0.1c-0.26,0.77-0.56,1.54-0.91,2.28l0.27,0.08
		c-0.02,0.07-0.07,0.12-0.2,0.13V53h-0.64V46.63z M131.95,50.52c-0.03,0.07-0.11,0.1-0.22,0.09c-0.51,0.88-1.34,1.82-2.11,2.4
		c-0.12-0.14-0.36-0.36-0.51-0.48c0.74-0.53,1.55-1.43,2.03-2.33L131.95,50.52z M134.22,48.92h1.64v0.71h-6.73v-0.71h1.61v-2.96
		h-1.31v-0.69h1.31v-2.32l0.85,0.05c-0.01,0.08-0.07,0.13-0.2,0.15v2.11h2.16v-2.32L134.4,43c-0.01,0.08-0.06,0.13-0.19,0.15v2.11
		h1.49v0.69h-1.49V48.92z M131.39,45.96v2.96h2.16v-2.96H131.39z M135.11,53c-0.36-0.68-1.18-1.74-1.88-2.49l0.58-0.34
		c0.7,0.73,1.53,1.76,1.92,2.43L135.11,53z"/>
	<path fill="#004676" d="M144,47.01l0.5,0.32c-0.03,0.06-0.08,0.09-0.14,0.11c-0.57,1.49-1.5,2.63-2.62,3.49
		c1.1,0.68,2.45,1.13,3.99,1.38c-0.16,0.18-0.33,0.5-0.43,0.7c-1.64-0.29-3.06-0.83-4.22-1.64c-1.24,0.78-2.68,1.29-4.21,1.61
		c-0.06-0.2-0.24-0.54-0.37-0.7c1.45-0.26,2.81-0.69,3.98-1.35c-0.92-0.77-1.64-1.75-2.17-2.93l0.56-0.23h-1.55v-0.73h3.43v-1.8
		h-3.97V44.5h3.97v-1.75l0.88,0.07c-0.01,0.08-0.07,0.13-0.2,0.15v1.53h4.01v0.73h-4.01v1.8h2.44L144,47.01z M138.94,47.76
		c0.5,1.11,1.23,2.04,2.19,2.75c0.99-0.69,1.8-1.59,2.33-2.75H138.94z"/>
	<path fill="#004676" d="M149.72,47.63l0.09,0.64l-1.2,0.47v3.32c0,0.79-0.33,0.91-1.64,0.89c-0.03-0.18-0.13-0.48-0.22-0.68
		c0.46,0.01,0.89,0.01,1.02,0.01c0.13-0.01,0.19-0.05,0.19-0.21v-3.07c-0.47,0.18-0.89,0.34-1.23,0.46c0,0.09-0.05,0.15-0.12,0.18
		l-0.28-0.87c0.45-0.13,1.01-0.32,1.62-0.53v-2.59h-1.5v-0.69h1.5v-2.22l0.85,0.05c-0.01,0.09-0.06,0.13-0.2,0.15v2.01h1.14v0.69
		h-1.14v2.35L149.72,47.63z M155.59,47.13h-1.26c-0.03,0.07-0.08,0.12-0.2,0.14v1.25h1.32v0.68h-1.32v2.89
		c0,0.85-0.39,0.87-1.79,0.87c-0.03-0.2-0.13-0.48-0.23-0.69c0.28,0.01,0.54,0.01,0.74,0.01h0.44c0.14,0,0.18-0.04,0.18-0.19v-2.89
		h-3.6v-0.68h3.6v-1.4h-3.83v-0.69h2.61v-1.58h-1.96v-0.68h1.96v-1.43l0.86,0.07c-0.01,0.08-0.07,0.13-0.2,0.15v1.21h2.04v0.68
		h-2.04v1.58h2.67V47.13z M151.69,51.83c-0.23-0.52-0.77-1.32-1.25-1.89l0.5-0.35c0.47,0.56,1.02,1.33,1.27,1.83L151.69,51.83z"/>
</g>
<g>
	<g>
		<path d="M82.64,8.66v10.76h-2.97V8.66h-4.11V5.92h11.18v2.74H82.64z"/>
		<path d="M96.44,19.42l-2.89-4.32h-2.33v4.32h-2.97V5.92h6.16c3.19,0,5.09,1.68,5.09,4.45v0.04c0,2.18-1.17,3.55-2.89,4.18
			l3.3,4.82H96.44z M96.5,10.53c0-1.27-0.89-1.93-2.33-1.93h-2.95v3.88h3c1.45,0,2.28-0.77,2.28-1.91V10.53z"/>
		<path d="M107.43,19.63c-3.63,0-5.84-2.02-5.84-6V5.92h2.97v7.63c0,2.2,1.1,3.33,2.91,3.33c1.81,0,2.91-1.1,2.91-3.24V5.92h2.97
			v7.61C113.34,17.62,111.05,19.63,107.43,19.63z"/>
		<path d="M120.79,19.61c-2.05,0-4.11-0.71-5.73-2.16l1.75-2.1c1.21,1,2.49,1.64,4.03,1.64c1.21,0,1.95-0.48,1.95-1.27v-0.04
			c0-0.75-0.46-1.14-2.72-1.71c-2.72-0.69-4.47-1.45-4.47-4.13V9.8c0-2.45,1.96-4.07,4.72-4.07c1.97,0,3.64,0.62,5.01,1.72
			l-1.54,2.23c-1.19-0.83-2.37-1.33-3.51-1.33c-1.13,0-1.73,0.52-1.73,1.18v0.04c0,0.89,0.58,1.18,2.91,1.77
			c2.73,0.71,4.27,1.7,4.27,4.05v0.04C125.73,18.11,123.69,19.61,120.79,19.61z"/>
		<path d="M133.28,8.66v10.76h-2.97V8.66h-4.11V5.92h11.18v2.74H133.28z"/>
		<path d="M146.63,15.27h-7.19c0.29,1.33,1.22,2.02,2.53,2.02c0.98,0,1.7-0.31,2.51-1.06l1.67,1.48c-0.96,1.2-2.35,1.93-4.22,1.93
			c-3.1,0-5.4-2.18-5.4-5.34v-0.04c0-2.95,2.1-5.38,5.1-5.38c3.45,0,5.03,2.68,5.03,5.61v0.04C146.67,14.83,146.65,15,146.63,15.27z
			 M141.63,11.24c-1.2,0-2,0.87-2.23,2.2h4.41C143.64,12.13,142.87,11.24,141.63,11.24z"/>
	</g>
</g>
<g>
	<path fill="#004676" d="M77.73,46.05h-2.32V44.9h5.97v1.15h-2.32v5.88h-1.33V46.05z M82.62,51.94v-3.9c0.22-0.13,0.56-0.2,0.95-0.2
		c0.27,0,0.52,0.03,0.77,0.1l0.32-1.05c-0.32-0.12-0.69-0.16-1.12-0.16c-0.97,0-1.76,0.39-2.14,0.73v4.49H82.62z M88.96,46.89v3.91
		c-0.31,0.13-0.65,0.2-1.05,0.2c-1.03,0-1.25-0.47-1.25-1.3v-2.81h-1.24v3.17c0,1.25,0.72,2.04,2.32,2.04
		c1.14,0,1.93-0.29,2.45-0.54v-4.66H88.96z M91.23,51.3c0,0,0.71,0.75,1.99,0.75c1.21,0,1.96-0.68,1.96-1.54
		c0-1.65-2.49-1.56-2.49-2.28c0-0.32,0.32-0.46,0.65-0.46c0.78,0,1.25,0.44,1.25,0.44l0.47-0.94c0,0-0.56-0.58-1.72-0.58
		c-1.1,0-1.96,0.55-1.96,1.51c0,1.65,2.49,1.55,2.49,2.31c0,0.3-0.31,0.46-0.67,0.46c-0.83,0-1.39-0.56-1.39-0.56L91.23,51.3z
		 M96.24,50.06c0,1.72,1.41,1.93,2.13,1.93c0.24,0,0.39-0.03,0.39-0.03v-1.11c0,0-0.09,0.02-0.23,0.02c-0.35,0-1.01-0.12-1.01-0.96
		v-1.91h1.16V46.9h-1.16v-1.48h-1.24L96.24,50.06z M107.63,51.94v-3.9c0.22-0.13,0.56-0.2,0.95-0.2c0.27,0,0.52,0.03,0.77,0.1
		l0.32-1.05c-0.32-0.12-0.69-0.16-1.12-0.16c-0.97,0-1.76,0.39-2.14,0.73v4.49H107.63z M112.54,46.79c-1.65,0-2.71,1.19-2.71,2.61
		c0,1.45,1.06,2.61,2.71,2.61c1.34,0,2.05-0.81,2.05-0.81l-0.48-0.88c0,0-0.63,0.64-1.47,0.64c-0.95,0-1.55-0.72-1.55-1.57
		c0-0.85,0.6-1.55,1.52-1.55c0.78,0,1.3,0.54,1.3,0.54l0.55-0.85C114.46,47.53,113.84,46.79,112.54,46.79 M103.74,50.11h-2.33
		l-0.63,1.79h-1.3l2.44-6.95h1.3l2.44,6.95h-1.3L103.74,50.11z M103.38,49.08l-0.8-2.29l-0.8,2.29H103.38z"/>
</g>
<line fill="none" stroke="#231F20" stroke-width="0.5" stroke-miterlimit="10" x1="65.34" y1="40.24" x2="155.92" y2="40.24"/>
<g>
	<path d="M68.07,29.8c-0.72,0-1.3,0.01-1.67,0.08v-1.46c0.79,0.12,2.1,0.13,2.94,0c-0.09,0.54-0.11,0.99-0.11,1.81v4
		c0.38,0.12,0.76,0.3,1.21,0.54c1.09,0.58,4.42,0.79,9.3,0.22c-0.22,0.48-0.33,0.95-0.33,1.43c-6.55,0.31-7.78,0.1-9.54-0.87
		c-1.11-0.62-1.75-0.51-2.62,1.02c-0.29-0.43-0.71-0.87-1.08-1.15c0.75-0.6,1.42-1.01,1.89-1.19V29.8z M68.75,26.65
		c-0.38-0.81-0.92-1.63-1.51-2.21l1.17-0.7c0.42,0.58,1.07,1.51,1.49,2.11L68.75,26.65z M76.34,24.9c-3.36,0-4.39,0.03-5.53,0.12
		v-1.25c1.14,0.11,2.28,0.14,4.11,0.14c1.88,0,2.89-0.05,3.6-0.14v0.99c-0.29,0.11-0.9,0.43-1.44,0.84l-1.82,1.51
		c1.84,0,2.83-0.01,3.76-0.12c-0.18,0.38-0.27,0.91-0.27,1.72v4.86c0,0.53-0.17,0.79-2,1.17c0-0.43-0.18-0.85-0.51-1.27
		c1.23,0,1.37-0.11,1.38-1.16h-2.46c0,0.84,0.04,1.74,0.11,2.34h-1.29c0.07-0.55,0.1-1.48,0.1-2.34h-2.22v2.21h-1.23
		c0.1-0.75,0.13-1.44,0.13-2.13v-3.67c0-0.71-0.03-1.35-0.11-1.72c0.56,0.06,1.28,0.1,3.2,0.12c-0.32-0.49-0.72-1.03-1.11-1.48
		l0.96-0.45c0.24,0.32,0.58,0.78,0.92,1.23L76.34,24.9z M74.09,29.26v-1.23h-2.22v1.23H74.09z M71.87,30.16v1.28h2.22v-1.28H71.87z
		 M77.63,29.26v-1.23h-2.46v1.23H77.63z M75.17,30.16v1.28h2.46v-1.28H75.17z"/>
	<path d="M85.82,34.41c1.17,0.6,3.97,0.92,9.21,0.39c-0.27,0.63-0.39,1.07-0.44,1.54c-6.78,0.08-7.84-0.21-9.58-1.08
		c-0.69-0.35-1.05-0.42-1.41-0.15c-0.35,0.27-0.74,0.79-1.12,1.41c-0.32-0.38-0.72-0.71-1.16-0.99c0.99-1.06,1.53-1.51,1.96-1.71
		v-4.58c-0.84,0-1.44,0.02-1.86,0.09v-1.21c0.4,0.04,1.03,0.09,1.6,0.09c0.6,0,1.3-0.03,1.71-0.09c-0.09,0.52-0.13,0.91-0.13,1.72
		v3.99C84.92,33.94,85.28,34.12,85.82,34.41z M84.99,25.86l-1.27,0.79c-0.5-0.9-0.93-1.63-1.52-2.46l1.19-0.72
		C83.96,24.22,84.53,25.05,84.99,25.86z M94.64,25.39v1.3c-0.57-0.06-1.12-0.09-2.08-0.09v6.27c0,1.05-0.18,1.37-2.79,1.62
		c-0.07-0.4-0.27-0.99-0.54-1.51c1.73,0.09,2.04-0.09,2.04-0.53v-5.85h-3.21c-1.21,0-1.84,0.03-2.46,0.08v-1.29
		c0.65,0.08,1.22,0.11,2.46,0.11h3.21c0-1.33-0.01-2.1-0.06-2.45c0.45,0.08,1.06,0.11,1.42,0.08c0.3-0.03,0.38,0.2,0.2,0.3
		c-0.23,0.13-0.27,0.41-0.27,0.57v1.5C93.53,25.5,94.04,25.47,94.64,25.39z M87.98,31.18c-0.35-0.93-0.79-1.89-1.28-2.75l1.2-0.5
		c0.5,0.81,0.99,1.73,1.37,2.67L87.98,31.18z"/>
	<path d="M99.77,28.62c1,1.1,1.36,1.75,1.36,2.64c0,1.51-0.58,2.02-2.2,2.34c-0.08-0.5-0.3-0.98-0.74-1.44
		c1.37,0.21,1.7-0.1,1.7-1.11c0-0.54-0.35-1.32-1.23-2.16l0.96-3.86H98v11.46h-1.29c0.08-1.04,0.11-1.92,0.11-2.71v-8.29
		c0-0.63-0.04-1.17-0.11-1.53c0.58,0.07,1.2,0.1,2.25,0.1s1.62-0.03,2.19-0.1L99.77,28.62z M101.13,36.07l-1.15-0.48
		c0.52-0.76,0.92-1.63,1.17-2.79l1.08,0.36C101.79,34.23,101.43,35.16,101.13,36.07z M102.05,29.71v-1.12
		c0.77,0.1,1.5,0.13,5.54,0.13V27.6h-2.62c-1.3,0-2.07,0.04-2.64,0.12v-0.84c-0.21,0.21-0.42,0.43-0.66,0.66
		c-0.29-0.27-0.6-0.42-1.02-0.54c1.48-1.11,2.29-2.37,2.98-3.98c0.46,0.2,0.87,0.33,1.28,0.41c0.28,0.06,0.31,0.2,0.04,0.3
		c-0.11,0.06-0.38,0.33-0.57,0.62h3.71l-1.65,2.33c1.46-0.02,1.98-0.06,2.38-0.14c-0.04,0.41-0.07,0.86-0.07,1.19v2.68
		c0,0.45,0.03,0.96,0.09,1.32c-1-0.06-2.08-0.08-3.42-0.08c-1.23,0-2.36,0.03-3.48,0.12v-1.19c0.92,0.09,1.73,0.12,2.87,0.12h2.79
		v-1.12C103.53,29.58,102.81,29.64,102.05,29.71z M106.13,25.27h-2.43c-0.38,0.48-0.79,0.98-1.19,1.4h2.73L106.13,25.27z
		 M106.73,36.45c-0.87,0.13-1.9,0.12-2.52,0.08c-0.95-0.08-1.42-0.33-1.42-0.84v-1.91c0-0.36-0.06-0.69-0.13-0.95
		c0.52,0.11,0.94,0.15,1.33,0.12c0.27-0.03,0.33,0.06,0.12,0.24c-0.17,0.13-0.2,0.22-0.2,0.45v1.53c0,0.18,0.15,0.3,0.67,0.36
		c0.25,0.03,0.81,0.01,1.39-0.08c0.35-0.06,0.54-0.38,0.75-1.53c0.27,0.49,0.68,0.78,1.14,0.9
		C107.51,36.17,107.28,36.36,106.73,36.45z M105.09,34.2c-0.12-0.57-0.39-1.3-0.66-1.8l1.12-0.32c0.15,0.5,0.45,1.22,0.74,1.68
		L105.09,34.2z M108.74,35.47c-0.3-0.79-0.89-1.82-1.43-2.4l1.08-0.55c0.42,0.73,1.02,1.63,1.56,2.38L108.74,35.47z"/>
	<path d="M112.02,34.35c-0.21-0.51-0.48-0.92-0.78-1.25c1.04-0.93,2.25-2.64,2.83-4.33c-1.09,0.01-1.92,0.04-2.58,0.12v-1.28
		c0.72,0.08,1.65,0.12,2.91,0.12v-2.46c-0.85,0.15-1.63,0.3-2.16,0.41c-0.17-0.5-0.34-0.83-0.66-1.23c1.21-0.04,2.31-0.16,3.18-0.33
		c1.06-0.21,1.65-0.36,2.43-0.66c0.21,0.48,0.58,0.99,0.85,1.29c0.23,0.24,0.21,0.3-0.03,0.27c-0.41-0.04-1.47-0.04-2.49,0.08v2.64
		c1.09-0.01,1.93-0.04,2.58-0.12v1.28c-0.63-0.06-1.49-0.11-2.58-0.12v5.43c0,0.74,0.04,1.68,0.12,2.58h-1.38
		c0.09-0.88,0.13-1.84,0.13-2.58v-4.15C113.72,31.77,112.91,33.22,112.02,34.35z M117.06,32.37c-0.39-0.66-0.96-1.5-1.44-2.11
		l0.84-0.56c0.5,0.6,1.07,1.33,1.53,2L117.06,32.37z M117.6,35.5c-0.18-0.51-0.41-0.96-0.68-1.39c0.47-0.15,0.8-0.44,0.96-0.76
		c1.12-2.21,2.07-5.8,2.76-9.93c0.64,0.31,1.26,0.52,1.51,0.57c0.33,0.06,0.36,0.23-0.03,0.5c-0.09,0.06-0.41,0.71-0.52,1.19
		c-0.36,1.51-1.58,5.37-2.82,8.28l3.92-0.51c-0.42-1.53-0.93-3.11-1.2-3.79l1.11-0.32c0.5,1.17,1.39,3.78,2.08,5.91l-1.46,0.43
		c-0.08-0.39-0.17-0.81-0.29-1.26C118.67,35.14,118.13,35.26,117.6,35.5z"/>
	<path d="M129.66,33.43c-1.33,0.18-2.46,0.36-3.22,0.6c-0.03-0.45-0.11-0.87-0.22-1.33c1.3-0.03,2.22-0.12,3.54-0.36
		C129.63,32.77,129.63,33.16,129.66,33.43z M131.67,29.89c-0.1,1.54-0.25,3.38-0.34,4.18c-0.24,1.98-0.33,2.15-2.87,2.5
		c-0.09-0.5-0.22-0.88-0.49-1.38c1.77,0.17,2.04,0.03,2.19-0.95c0.12-0.76,0.27-2.31,0.32-3.18c-2.07,0-2.87,0.03-3.46,0.14
		c0.1-0.93,0.3-4.26,0.27-5.1c0.41,0.11,0.84,0.18,1.28,0.17c0.27-0.01,0.3,0.09,0.12,0.23c-0.15,0.1-0.21,0.29-0.22,0.5l-0.31,3.06
		h1.39l0.6-4.93c-1.95,0-2.79,0.06-3.46,0.17v-1.4c0.69,0.08,1.61,0.12,2.4,0.12c0.78,0,1.62-0.04,2.29-0.12l-0.75,6.12
		C131.09,30,131.37,29.97,131.67,29.89z M133.35,27.63c0.45,0.07,1.06,0.12,2.08,0.12c1.06,0,1.66-0.03,2.14-0.12v1.21
		c-0.48-0.06-1.07-0.09-2.14-0.09c-1.05,0-1.65,0.06-2.12,0.15v-1.23c-0.34,0.4-0.75,0.81-1.2,1.25c-0.25-0.29-0.6-0.56-0.97-0.72
		c0.94-0.6,1.9-1.83,2.65-3.21c0.47-0.85,0.69-1.53,0.79-2.01c0.45,0.17,1.17,0.39,1.59,0.45c0.22,0.03,0.24,0.18,0.01,0.27
		c-0.06,0.03-0.13,0.06-0.2,0.1c1.04,1.93,2.25,2.97,4.02,3.51c-0.41,0.39-0.78,0.95-0.92,1.33c-1.88-1.09-3.02-2.33-3.63-4.32
		C134.75,25.71,134.15,26.68,133.35,27.63z M137.24,29.77c0.52,0.22,1.14,0.41,1.47,0.48c0.18,0.04,0.18,0.12-0.04,0.25
		c-0.15,0.09-0.33,0.4-0.46,0.82c-0.48,1.49-0.93,2.73-1.33,3.72c0.94,0,1.62-0.05,2.16-0.14v1.32c-0.64-0.09-1.68-0.13-3.6-0.13
		c-2.02,0-3.09,0.04-3.64,0.13v-1.32c0.55,0.09,1.63,0.14,2.31,0.14h1.74C136.47,33.4,136.91,31.86,137.24,29.77z M132.9,34.04
		c-0.08-1-0.41-2.95-0.66-3.79l0.99-0.2c0.15,0.81,0.58,2.89,0.78,3.75L132.9,34.04z M134.79,33.37c-0.09-1.11-0.27-2.52-0.45-3.42
		l1.08-0.18c0.11,0.92,0.3,2.42,0.48,3.42L134.79,33.37z"/>
	<path d="M144.44,35.11c-0.34,0.42-0.69,0.93-0.92,1.32c-0.33-0.41-0.72-0.83-1.08-1.08c0.43-0.39,0.54-0.6,0.54-1.63v-4.88
		c-0.97,0-1.38,0.03-1.8,0.08v-1.37c0.42,0.06,0.79,0.08,1.48,0.08c0.68,0,1.25-0.02,1.67-0.08c-0.12,0.51-0.15,0.96-0.15,2.12v4.05
		c0.5-0.58,0.81-0.98,1.27-1.62c0.17,0.51,0.44,0.88,0.69,1.06L144.44,35.11z M143.73,26.32c-0.33-0.85-0.75-1.6-1.41-2.41
		l1.19-0.71c0.46,0.78,1.03,1.69,1.5,2.37L143.73,26.32z M146.7,29.65c0-0.72-0.03-1.26-0.1-1.68c0.48,0.08,1.11,0.13,1.56,0.13
		c0.2,0,0.25,0.15-0.01,0.33c-0.11,0.08-0.18,0.27-0.18,0.54v5.82h1.71v-9.34c-1.5,0.01-2.64,0.06-3.5,0.15v-1.38
		c0.96,0.09,2.25,0.13,4.02,0.13c1.75,0,3.06-0.06,4-0.13v1.38c-0.81-0.09-1.86-0.13-3.27-0.15v3.51h1.23
		c0.67,0,1.27-0.04,1.86-0.14v1.37c-0.6-0.06-1.15-0.08-1.86-0.08h-1.23v4.68c2.4,0,3.32-0.06,3.87-0.18v1.47
		c-0.55-0.09-1.47-0.13-4.88-0.13c-3.22,0-4.03,0.04-4.69,0.13v-1.47c0.41,0.09,0.84,0.13,1.47,0.17V29.65z"/>
</g>
<g>
</g>
<g>
</g>
<g>
</g>
<g>
</g>
<g>
</g>
<g>
</g>
</svg>
